<?xml version="1.0" encoding="utf-8"?>
<svg version="1.1" xmlns:xlink="http://www.w3.org/1999/xlink" width="15px" height="15px" xmlns="http://www.w3.org/2000/svg">
  <g transform="matrix(1 0 0 1 -160 -462 )">
    <path d="M 15 5.69166666666667  C 15 5.25  14.825 4.825  14.5083333333333 4.50833333333333  L 10.4833333333333 0.483333333333333  C 10.175 0.175  9.75 0  9.30833333333333 0  L 1.66666666666667 0  C 0.75 0  0 0.75  0 1.66666666666667  L 0 13.3333333333333  C 0 14.25  0.75 15  1.66666666666667 15  L 13.3333333333333 15  C 14.25 15  15 14.25  15 13.3333333333333  L 15 5.69166666666667  Z M 3.33333333333333 5  L 3.33333333333333 3.33333333333333  L 9.16666666666667 3.33333333333333  L 9.16666666666667 5  L 3.33333333333333 5  Z M 11.6666666666667 10  L 11.6666666666667 11.6666666666667  L 3.33333333333333 11.6666666666667  L 3.33333333333333 10  L 11.6666666666667 10  Z M 11.6666666666667 6.66666666666667  L 11.6666666666667 8.33333333333333  L 3.33333333333333 8.33333333333333  L 3.33333333333333 6.66666666666667  L 11.6666666666667 6.66666666666667  Z " fill-rule="nonzero" fill="#facd91" stroke="none" transform="matrix(1 0 0 1 160 462 )" />
  </g>
</svg>