<?xml version="1.0" encoding="utf-8"?>
<svg version="1.1" xmlns:xlink="http://www.w3.org/1999/xlink" width="10px" height="10px" xmlns="http://www.w3.org/2000/svg">
  <g transform="matrix(1 0 0 1 -161 -592 )">
    <path d="M 7.08333333333333 3.33333333333333  C 7.25694444444445 3.33333333333333  7.38064236111111 3.40928819444444  7.45442708333333 3.56119791666667  C 7.53255208333333 3.71310763888889  7.52170138888889 3.85633680555555  7.421875 3.99088541666667  L 5.33854166666667 6.90755208333333  C 5.25607638888889 7.02473958333333  5.14322916666667 7.08333333333333  5 7.08333333333333  C 4.85677083333333 7.08333333333333  4.74392361111111 7.02473958333333  4.66145833333333 6.90755208333333  L 2.578125 3.99088541666667  C 2.47829861111111 3.85633680555555  2.46744791666667 3.71310763888889  2.54557291666667 3.56119791666667  C 2.61935763888889 3.40928819444444  2.74305555555556 3.33333333333333  2.91666666666667 3.33333333333333  L 7.08333333333333 3.33333333333333  Z M 8.271484375 8.271484375  C 8.31271701388889 8.23025173611111  8.33333333333333 8.18142361111111  8.33333333333333 8.125  L 8.33333333333333 1.875  C 8.33333333333333 1.81857638888889  8.31271701388889 1.76974826388889  8.271484375 1.728515625  C 8.23025173611111 1.68728298611111  8.18142361111111 1.66666666666667  8.125 1.66666666666667  L 1.875 1.66666666666667  C 1.81857638888889 1.66666666666667  1.76974826388889 1.68728298611111  1.728515625 1.728515625  C 1.68728298611111 1.76974826388889  1.66666666666667 1.81857638888889  1.66666666666667 1.875  L 1.66666666666667 8.125  C 1.66666666666667 8.18142361111111  1.68728298611111 8.23025173611111  1.728515625 8.271484375  C 1.76974826388889 8.31271701388889  1.81857638888889 8.33333333333333  1.875 8.33333333333333  L 8.125 8.33333333333333  C 8.18142361111111 8.33333333333333  8.23025173611111 8.31271701388889  8.271484375 8.271484375  Z M 9.44986979166667 0.550130208333334  C 9.81662326388889 0.916883680555555  10 1.35850694444444  10 1.875  L 10 8.125  C 10 8.64149305555556  9.81662326388889 9.08311631944444  9.44986979166667 9.44986979166667  C 9.08311631944444 9.81662326388889  8.64149305555556 10  8.125 10  L 1.875 10  C 1.35850694444444 10  0.916883680555556 9.81662326388889  0.550130208333333 9.44986979166667  C 0.183376736111111 9.08311631944444  0 8.64149305555556  0 8.125  L 0 1.875  C 0 1.35850694444444  0.183376736111111 0.916883680555555  0.550130208333333 0.550130208333334  C 0.916883680555556 0.18337673611111  1.35850694444444 0  1.875 0  L 8.125 0  C 8.64149305555556 0  9.08311631944444 0.18337673611111  9.44986979166667 0.550130208333334  Z " fill-rule="nonzero" fill="#ff6621" stroke="none" transform="matrix(1 0 0 1 161 592 )" />
  </g>
</svg>