<?xml version="1.0" encoding="utf-8"?>
<svg version="1.1" xmlns:xlink="http://www.w3.org/1999/xlink" width="1060px" height="163px" xmlns="http://www.w3.org/2000/svg">
  <g transform="matrix(1 0 0 1 -160 -608 )">
    <path d="M 161 612  A 3 3 0 0 1 164 609 L 1216 609  A 3 3 0 0 1 1219 612 L 1219 767  A 3 3 0 0 1 1216 770 L 164 770  A 3 3 0 0 1 161 767 L 161 612  Z " fill-rule="nonzero" fill="#ffffff" stroke="none" />
    <path d="M 160.5 612  A 3.5 3.5 0 0 1 164 608.5 L 1216 608.5  A 3.5 3.5 0 0 1 1219.5 612 L 1219.5 767  A 3.5 3.5 0 0 1 1216 770.5 L 164 770.5  A 3.5 3.5 0 0 1 160.5 767 L 160.5 612  Z " stroke-width="1" stroke="#d7d7d7" fill="none" stroke-opacity="0.8" />
  </g>
</svg>