<?xml version="1.0" encoding="utf-8"?>
<svg version="1.1" xmlns:xlink="http://www.w3.org/1999/xlink" width="21px" height="16px" xmlns="http://www.w3.org/2000/svg">
  <g transform="matrix(1 0 0 1 -360 -461 )">
    <path d="M 8.864501953125 12.265625  C 9.079833984375 11.9982638888889  9.1875 11.6736111111111  9.1875 11.2916666666667  C 9.1875 10.9166666666667  9.161865234375 10.5677083333333  9.110595703125 10.2447916666667  C 9.059326171875 9.921875  8.9755859375 9.609375  8.859375 9.30729166666667  C 8.7431640625 9.00520833333333  8.56884765625 8.76736111111111  8.33642578125 8.59375  C 8.10400390625 8.42013888888889  7.8271484375 8.33333333333333  7.505859375 8.33333333333333  C 7.068359375 8.77777777777778  6.53515625 9  5.90625 9  C 5.27734375 9  4.744140625 8.77777777777778  4.306640625 8.33333333333333  C 3.9853515625 8.33333333333333  3.70849609375 8.42013888888889  3.47607421875 8.59375  C 3.24365234375 8.76736111111111  3.0693359375 9.00520833333333  2.953125 9.30729166666667  C 2.8369140625 9.609375  2.753173828125 9.921875  2.701904296875 10.2447916666667  C 2.650634765625 10.5677083333333  2.625 10.9166666666667  2.625 11.2916666666667  C 2.625 11.6736111111111  2.732666015625 11.9982638888889  2.947998046875 12.265625  C 3.163330078125 12.5329861111111  3.42138671875 12.6666666666667  3.72216796875 12.6666666666667  L 8.09033203125 12.6666666666667  C 8.39111328125 12.6666666666667  8.649169921875 12.5329861111111  8.864501953125 12.265625  Z M 7.30078125 8.08333333333333  C 7.68359375 7.69444444444444  7.875 7.22222222222222  7.875 6.66666666666667  C 7.875 6.11111111111111  7.68359375 5.63888888888889  7.30078125 5.25  C 6.91796875 4.86111111111111  6.453125 4.66666666666667  5.90625 4.66666666666667  C 5.359375 4.66666666666667  4.89453125 4.86111111111111  4.51171875 5.25  C 4.12890625 5.63888888888889  3.9375 6.11111111111111  3.9375 6.66666666666667  C 3.9375 7.22222222222222  4.12890625 7.69444444444444  4.51171875 8.08333333333333  C 4.89453125 8.47222222222222  5.359375 8.66666666666667  5.90625 8.66666666666667  C 6.453125 8.66666666666667  6.91796875 8.47222222222222  7.30078125 8.08333333333333  Z M 18.28271484375 11.90625  C 18.34423828125 11.84375  18.375 11.7638888888889  18.375 11.6666666666667  L 18.375 11  C 18.375 10.9027777777778  18.34423828125 10.8229166666667  18.28271484375 10.7604166666667  C 18.22119140625 10.6979166666667  18.142578125 10.6666666666667  18.046875 10.6666666666667  L 10.828125 10.6666666666667  C 10.732421875 10.6666666666667  10.65380859375 10.6979166666667  10.59228515625 10.7604166666667  C 10.53076171875 10.8229166666667  10.5 10.9027777777778  10.5 11  L 10.5 11.6666666666667  C 10.5 11.7638888888889  10.53076171875 11.84375  10.59228515625 11.90625  C 10.65380859375 11.96875  10.732421875 12  10.828125 12  L 18.046875 12  C 18.142578125 12  18.22119140625 11.96875  18.28271484375 11.90625  Z M 14.34521484375 9.23958333333333  C 14.40673828125 9.17708333333333  14.4375 9.09722222222222  14.4375 9  L 14.4375 8.33333333333333  C 14.4375 8.23611111111111  14.40673828125 8.15625  14.34521484375 8.09375  C 14.28369140625 8.03125  14.205078125 8  14.109375 8  L 10.828125 8  C 10.732421875 8  10.65380859375 8.03125  10.59228515625 8.09375  C 10.53076171875 8.15625  10.5 8.23611111111111  10.5 8.33333333333333  L 10.5 9  C 10.5 9.09722222222222  10.53076171875 9.17708333333333  10.59228515625 9.23958333333333  C 10.65380859375 9.30208333333333  10.732421875 9.33333333333333  10.828125 9.33333333333333  L 14.109375 9.33333333333333  C 14.205078125 9.33333333333333  14.28369140625 9.30208333333333  14.34521484375 9.23958333333333  Z M 18.28271484375 9.23958333333333  C 18.34423828125 9.17708333333333  18.375 9.09722222222222  18.375 9  L 18.375 8.33333333333333  C 18.375 8.23611111111111  18.34423828125 8.15625  18.28271484375 8.09375  C 18.22119140625 8.03125  18.142578125 8  18.046875 8  L 16.078125 8  C 15.982421875 8  15.90380859375 8.03125  15.84228515625 8.09375  C 15.78076171875 8.15625  15.75 8.23611111111111  15.75 8.33333333333333  L 15.75 9  C 15.75 9.09722222222222  15.78076171875 9.17708333333333  15.84228515625 9.23958333333333  C 15.90380859375 9.30208333333333  15.982421875 9.33333333333333  16.078125 9.33333333333333  L 18.046875 9.33333333333333  C 18.142578125 9.33333333333333  18.22119140625 9.30208333333333  18.28271484375 9.23958333333333  Z M 18.28271484375 6.57291666666667  C 18.34423828125 6.51041666666667  18.375 6.43055555555556  18.375 6.33333333333333  L 18.375 5.66666666666667  C 18.375 5.56944444444444  18.34423828125 5.48958333333333  18.28271484375 5.42708333333333  C 18.22119140625 5.36458333333333  18.142578125 5.33333333333333  18.046875 5.33333333333333  L 10.828125 5.33333333333333  C 10.732421875 5.33333333333333  10.65380859375 5.36458333333333  10.59228515625 5.42708333333333  C 10.53076171875 5.48958333333333  10.5 5.56944444444444  10.5 5.66666666666667  L 10.5 6.33333333333333  C 10.5 6.43055555555556  10.53076171875 6.51041666666667  10.59228515625 6.57291666666667  C 10.65380859375 6.63541666666667  10.732421875 6.66666666666667  10.828125 6.66666666666667  L 18.046875 6.66666666666667  C 18.142578125 6.66666666666667  18.22119140625 6.63541666666667  18.28271484375 6.57291666666667  Z M 1.3125 1.66666666666667  L 1.3125 2.66666666666667  L 19.6875 2.66666666666667  L 19.6875 1.66666666666667  C 19.6875 1.56944444444444  19.65673828125 1.48958333333333  19.59521484375 1.42708333333333  C 19.53369140625 1.36458333333333  19.455078125 1.33333333333333  19.359375 1.33333333333333  L 1.640625 1.33333333333333  C 1.544921875 1.33333333333333  1.46630859375 1.36458333333333  1.40478515625 1.42708333333333  C 1.34326171875 1.48958333333333  1.3125 1.56944444444444  1.3125 1.66666666666667  Z M 20.51806640625 0.489583333333334  C 20.83935546875 0.815972222222221  21 1.20833333333333  21 1.66666666666667  L 21 14.3333333333333  C 21 14.7916666666667  20.83935546875 15.1840277777778  20.51806640625 15.5104166666667  C 20.19677734375 15.8368055555556  19.810546875 16  19.359375 16  L 1.640625 16  C 1.189453125 16  0.80322265625 15.8368055555556  0.48193359375 15.5104166666667  C 0.16064453125 15.1840277777778  0 14.7916666666667  0 14.3333333333333  L 0 1.66666666666667  C 0 1.20833333333333  0.16064453125 0.815972222222221  0.48193359375 0.489583333333334  C 0.80322265625 0.163194444444443  1.189453125 0  1.640625 0  L 19.359375 0  C 19.810546875 0  20.19677734375 0.163194444444443  20.51806640625 0.489583333333334  Z " fill-rule="nonzero" fill="#facd91" stroke="none" transform="matrix(1 0 0 1 360 461 )" />
  </g>
</svg>