<?xml version="1.0" encoding="utf-8"?>
<svg version="1.1" xmlns:xlink="http://www.w3.org/1999/xlink" width="1060px" height="248px" xmlns="http://www.w3.org/2000/svg">
  <g transform="matrix(1 0 0 1 -160 -820 )">
    <path d="M 161 824  A 3 3 0 0 1 164 821 L 1216 821  A 3 3 0 0 1 1219 824 L 1219 1064  A 3 3 0 0 1 1216 1067 L 164 1067  A 3 3 0 0 1 161 1064 L 161 824  Z " fill-rule="nonzero" fill="#ffffff" stroke="none" />
    <path d="M 160.5 824  A 3.5 3.5 0 0 1 164 820.5 L 1216 820.5  A 3.5 3.5 0 0 1 1219.5 824 L 1219.5 1064  A 3.5 3.5 0 0 1 1216 1067.5 L 164 1067.5  A 3.5 3.5 0 0 1 160.5 1064 L 160.5 824  Z " stroke-width="1" stroke="#d7d7d7" fill="none" stroke-opacity="0.8" />
  </g>
</svg>