<?xml version="1.0" encoding="utf-8"?>
<svg version="1.1" xmlns:xlink="http://www.w3.org/1999/xlink" width="15px" height="11px" xmlns="http://www.w3.org/2000/svg">
  <g transform="matrix(1 0 0 1 -9 -113 )">
    <path d="M 13.59375 9.78125  C 13.7620192307692 9.63541666666667  13.8461538461538 9.45833333333333  13.8461538461538 9.25  L 13.8461538461538 3.75  C 13.8461538461538 3.54166666666667  13.7620192307692 3.36458333333333  13.59375 3.21875  C 13.4254807692308 3.07291666666667  13.2211538461538 3  12.9807692307692 3  L 6.63461538461538 3  C 6.39423076923077 3  6.18990384615385 2.92708333333333  6.02163461538462 2.78125  C 5.85336538461539 2.63541666666667  5.76923076923077 2.45833333333333  5.76923076923077 2.25  L 5.76923076923077 1.75  C 5.76923076923077 1.54166666666667  5.68509615384615 1.36458333333333  5.51682692307692 1.21875  C 5.34855769230769 1.07291666666667  5.14423076923077 1  4.90384615384615 1  L 2.01923076923077 1  C 1.77884615384615 1  1.57451923076923 1.07291666666667  1.40625 1.21875  C 1.23798076923077 1.36458333333333  1.15384615384615 1.54166666666667  1.15384615384615 1.75  L 1.15384615384615 9.25  C 1.15384615384615 9.45833333333333  1.23798076923077 9.63541666666667  1.40625 9.78125  C 1.57451923076923 9.92708333333333  1.77884615384615 10  2.01923076923077 10  L 12.9807692307692 10  C 13.2211538461538 10  13.4254807692308 9.92708333333333  13.59375 9.78125  Z M 14.4050480769231 2.515625  C 14.8016826923077 2.859375  15 3.27083333333333  15 3.75  L 15 9.25  C 15 9.72916666666667  14.8016826923077 10.140625  14.4050480769231 10.484375  C 14.0084134615385 10.828125  13.5336538461538 11  12.9807692307692 11  L 2.01923076923077 11  C 1.46634615384615 11  0.991586538461539 10.828125  0.594951923076923 10.484375  C 0.198317307692308 10.140625  0 9.72916666666667  0 9.25  L 0 1.75  C 0 1.27083333333333  0.198317307692308 0.859375  0.594951923076923 0.515625  C 0.991586538461539 0.171875  1.46634615384615 0  2.01923076923077 0  L 4.90384615384615 0  C 5.45673076923077 0  5.93149038461538 0.171875  6.328125 0.515625  C 6.72475961538462 0.859375  6.92307692307692 1.27083333333333  6.92307692307692 1.75  L 6.92307692307692 2  L 12.9807692307692 2  C 13.5336538461538 2  14.0084134615385 2.171875  14.4050480769231 2.515625  Z " fill-rule="nonzero" fill="#0e4c6d" stroke="none" transform="matrix(1 0 0 1 9 113 )" />
  </g>
</svg>