<?xml version="1.0" encoding="utf-8"?>
<svg version="1.1" xmlns:xlink="http://www.w3.org/1999/xlink" width="15px" height="11px" xmlns="http://www.w3.org/2000/svg">
  <g transform="matrix(1 0 0 1 -9 -149 )">
    <path d="M 13.8528025144054 6.578125  C 13.9470927187009 6.46354166666667  13.9942378208486 6.36197916666667  13.9942378208486 6.2734375  C 13.9942378208486 6.09114583333333  13.855421686747 6  13.5777894185437 6  L 5.02881089575694 6  C 4.81927710843373 6  4.59533787323206 6.05598958333333  4.35699319015191 6.16796875  C 4.11864850707177 6.27994791666667  3.93137768465165 6.41666666666667  3.79518072289157 6.578125  L 1.48507071765322 9.4140625  C 1.39078051335778 9.5390625  1.34363541121006 9.64322916666667  1.34363541121006 9.7265625  C 1.34363541121006 9.90885416666667  1.48245154531168 10  1.76008381351493 10  L 10.3090623363017 10  C 10.5185961236249 10  10.7438449449974 9.94270833333333  10.9848088004191 9.828125  C 11.2257726558408 9.71354166666667  11.4117338920901 9.57552083333333  11.5426925091671 9.4140625  L 13.8528025144054 6.578125  Z M 3.92875851231011 5.26953125  C 4.30591932949188 5.08984375  4.67260345730749 5  5.02881089575694 5  L 11.0633839706653 5  L 11.0633839706653 3.75  C 11.0633839706653 3.54166666666667  10.9900471451021 3.36458333333333  10.8433734939759 3.21875  C 10.6966998428497 3.07291666666667  10.5185961236249 3  10.3090623363017 3  L 5.78313253012048 3  C 5.57359874279728 3  5.39549502357255 2.92708333333333  5.24882137244631 2.78125  C 5.10214772132006 2.63541666666667  5.02881089575694 2.45833333333333  5.02881089575694 2.25  L 5.02881089575694 1.75  C 5.02881089575694 1.54166666666667  4.95547407019382 1.36458333333333  4.80880041906757 1.21875  C 4.66212676794133 1.07291666666667  4.48402304871661 1  4.2744892613934 1  L 1.76008381351493 1  C 1.55055002619172 1  1.372446306967 1.07291666666667  1.22577265584075 1.21875  C 1.07909900471451 1.36458333333333  1.00576217915139 1.54166666666667  1.00576217915139 1.75  L 1.00576217915139 8.4140625  L 3.01728653745416 5.953125  C 3.24777370350969 5.67708333333333  3.55159769512834 5.44921875  3.92875851231011 5.26953125  Z M 14.8821372446307 5.7421875  C 14.9607124148769 5.90885416666667  15 6.0859375  15 6.2734375  C 15 6.59635416666667  14.8795180722892 6.90885416666667  14.6385542168675 7.2109375  L 12.3205866946045 10.046875  C 12.0953378732321 10.3229166666667  11.7915138816134 10.55078125  11.4091147197486 10.73046875  C 11.0267155578837 10.91015625  10.6600314300681 11  10.3090623363017 11  L 1.76008381351493 11  C 1.27815610267156 11  0.864326872708224 10.828125  0.518596123624935 10.484375  C 0.172865374541645 10.140625  0 9.72916666666667  0 9.25  L 0 1.75  C 0 1.27083333333333  0.172865374541645 0.859375  0.518596123624935 0.515625  C 0.864326872708224 0.171875  1.27815610267156 0  1.76008381351493 0  L 4.2744892613934 0  C 4.75641697223677 0  5.1702462022001 0.171875  5.51597695128339 0.515625  C 5.86170770036668 0.859375  6.03457307490833 1.27083333333333  6.03457307490833 1.75  L 6.03457307490833 2  L 10.3090623363017 2  C 10.7909900471451 2  11.2048192771084 2.171875  11.5505500261917 2.515625  C 11.896280775275 2.859375  12.0691461498167 3.27083333333333  12.0691461498167 3.75  L 12.0691461498167 5  L 13.5777894185437 5  C 13.8606600314301 5  14.1199580932425 5.06380208333333  14.3556836039811 5.19140625  C 14.5914091147198 5.31901041666667  14.7668936616029 5.50260416666667  14.8821372446307 5.7421875  Z " fill-rule="nonzero" fill="#0e4c6d" stroke="none" transform="matrix(1 0 0 1 9 149 )" />
  </g>
</svg>