<?xml version="1.0" encoding="utf-8"?>
<svg version="1.1" xmlns:xlink="http://www.w3.org/1999/xlink" width="11px" height="9px" xmlns="http://www.w3.org/2000/svg">
  <g transform="matrix(1 0 0 1 -8 -41 )">
    <path d="M 10.828125 6.1640625  C 10.9427083333333 6.2734375  11 6.40625  11 6.5625  L 11 8.4375  C 11 8.59375  10.9427083333333 8.7265625  10.828125 8.8359375  C 10.7135416666667 8.9453125  10.5744047619048 9  10.4107142857143 9  L 8.44642857142857 9  C 8.2827380952381 9  8.14360119047619 8.9453125  8.02901785714286 8.8359375  C 7.91443452380952 8.7265625  7.85714285714286 8.59375  7.85714285714286 8.4375  L 7.85714285714286 6.5625  C 7.85714285714286 6.40625  7.91443452380952 6.2734375  8.02901785714286 6.1640625  C 8.14360119047619 6.0546875  8.2827380952381 6  8.44642857142857 6  L 9.03571428571428 6  L 9.03571428571428 4.875  L 5.89285714285714 4.875  L 5.89285714285714 6  L 6.48214285714286 6  C 6.64583333333333 6  6.78497023809524 6.0546875  6.89955357142857 6.1640625  C 7.01413690476191 6.2734375  7.07142857142857 6.40625  7.07142857142857 6.5625  L 7.07142857142857 8.4375  C 7.07142857142857 8.59375  7.01413690476191 8.7265625  6.89955357142857 8.8359375  C 6.78497023809524 8.9453125  6.64583333333333 9  6.48214285714286 9  L 4.51785714285714 9  C 4.35416666666667 9  4.21502976190476 8.9453125  4.10044642857143 8.8359375  C 3.9858630952381 8.7265625  3.92857142857143 8.59375  3.92857142857143 8.4375  L 3.92857142857143 6.5625  C 3.92857142857143 6.40625  3.9858630952381 6.2734375  4.10044642857143 6.1640625  C 4.21502976190476 6.0546875  4.35416666666667 6  4.51785714285714 6  L 5.10714285714286 6  L 5.10714285714286 4.875  L 1.96428571428571 4.875  L 1.96428571428571 6  L 2.55357142857143 6  C 2.71726190476191 6  2.85639880952381 6.0546875  2.97098214285714 6.1640625  C 3.08556547619048 6.2734375  3.14285714285714 6.40625  3.14285714285714 6.5625  L 3.14285714285714 8.4375  C 3.14285714285714 8.59375  3.08556547619048 8.7265625  2.97098214285714 8.8359375  C 2.85639880952381 8.9453125  2.71726190476191 9  2.55357142857143 9  L 0.589285714285714 9  C 0.425595238095238 9  0.286458333333333 8.9453125  0.171875 8.8359375  C 0.0572916666666667 8.7265625  0 8.59375  0 8.4375  L 0 6.5625  C 0 6.40625  0.0572916666666667 6.2734375  0.171875 6.1640625  C 0.286458333333333 6.0546875  0.425595238095238 6  0.589285714285714 6  L 1.17857142857143 6  L 1.17857142857143 4.875  C 1.17857142857143 4.671875  1.2563244047619 4.49609375  1.41183035714286 4.34765625  C 1.56733630952381 4.19921875  1.7514880952381 4.125  1.96428571428571 4.125  L 5.10714285714286 4.125  L 5.10714285714286 3  L 4.51785714285714 3  C 4.35416666666667 3  4.21502976190476 2.9453125  4.10044642857143 2.8359375  C 3.9858630952381 2.7265625  3.92857142857143 2.59375  3.92857142857143 2.4375  L 3.92857142857143 0.5625  C 3.92857142857143 0.40625  3.9858630952381 0.273437499999999  4.10044642857143 0.1640625  C 4.21502976190476 0.0546874999999996  4.35416666666667 0  4.51785714285714 0  L 6.48214285714286 0  C 6.64583333333333 0  6.78497023809524 0.0546874999999996  6.89955357142857 0.1640625  C 7.01413690476191 0.273437499999999  7.07142857142857 0.40625  7.07142857142857 0.5625  L 7.07142857142857 2.4375  C 7.07142857142857 2.59375  7.01413690476191 2.7265625  6.89955357142857 2.8359375  C 6.78497023809524 2.9453125  6.64583333333333 3  6.48214285714286 3  L 5.89285714285714 3  L 5.89285714285714 4.125  L 9.03571428571428 4.125  C 9.24851190476191 4.125  9.43266369047619 4.19921875  9.58816964285714 4.34765625  C 9.7436755952381 4.49609375  9.82142857142857 4.671875  9.82142857142857 4.875  L 9.82142857142857 6  L 10.4107142857143 6  C 10.5744047619048 6  10.7135416666667 6.0546875  10.828125 6.1640625  Z " fill-rule="nonzero" fill="#aaaaaa" stroke="none" transform="matrix(1 0 0 1 8 41 )" />
  </g>
</svg>