<?xml version="1.0" encoding="utf-8"?>
<svg version="1.1" xmlns:xlink="http://www.w3.org/1999/xlink" width="1060px" height="247px" xmlns="http://www.w3.org/2000/svg">
  <g transform="matrix(1 0 0 1 -160 -518 )">
    <path d="M 161 522  A 3 3 0 0 1 164 519 L 1216 519  A 3 3 0 0 1 1219 522 L 1219 761  A 3 3 0 0 1 1216 764 L 164 764  A 3 3 0 0 1 161 761 L 161 522  Z " fill-rule="nonzero" fill="#ffffff" stroke="none" />
    <path d="M 160.5 522  A 3.5 3.5 0 0 1 164 518.5 L 1216 518.5  A 3.5 3.5 0 0 1 1219.5 522 L 1219.5 761  A 3.5 3.5 0 0 1 1216 764.5 L 164 764.5  A 3.5 3.5 0 0 1 160.5 761 L 160.5 522  Z " stroke-width="1" stroke="#d7d7d7" fill="none" stroke-opacity="0.8" />
  </g>
</svg>