<?xml version="1.0" encoding="utf-8"?>
<svg version="1.1" xmlns:xlink="http://www.w3.org/1999/xlink" width="1060px" height="142px" xmlns="http://www.w3.org/2000/svg">
  <g transform="matrix(1 0 0 1 -160 -553 )">
    <path d="M 161 557  A 3 3 0 0 1 164 554 L 1216 554  A 3 3 0 0 1 1219 557 L 1219 691  A 3 3 0 0 1 1216 694 L 164 694  A 3 3 0 0 1 161 691 L 161 557  Z " fill-rule="nonzero" fill="#ffffff" stroke="none" />
    <path d="M 160.5 557  A 3.5 3.5 0 0 1 164 553.5 L 1216 553.5  A 3.5 3.5 0 0 1 1219.5 557 L 1219.5 691  A 3.5 3.5 0 0 1 1216 694.5 L 164 694.5  A 3.5 3.5 0 0 1 160.5 691 L 160.5 557  Z " stroke-width="1" stroke="#d7d7d7" fill="none" stroke-opacity="0.8" />
  </g>
</svg>