<?xml version="1.0" encoding="utf-8"?>
<svg version="1.1" xmlns:xlink="http://www.w3.org/1999/xlink" width="150px" height="27px" xmlns="http://www.w3.org/2000/svg">
  <defs>
    <filter x="1057px" y="315px" width="150px" height="27px" filterUnits="userSpaceOnUse" id="filter45">
      <feOffset dx="2" dy="2" in="SourceAlpha" result="shadowOffsetInner" />
      <feGaussianBlur stdDeviation="1.5" in="shadowOffsetInner" result="shadowGaussian" />
      <feComposite in2="shadowGaussian" operator="atop" in="SourceAlpha" result="shadowComposite" />
      <feColorMatrix type="matrix" values="0 0 0 0 0  0 0 0 0 0  0 0 0 0 0  0 0 0 0.101960784313725 0  " in="shadowComposite" />
    </filter>
    <g id="widget46">
      <path d="M 1059 326.5  A 9.5 9.5 0 0 1 1068.5 317 L 1191.5 317  A 9.5 9.5 0 0 1 1201 326.5 A 9.5 9.5 0 0 1 1191.5 336 L 1068.5 336  A 9.5 9.5 0 0 1 1059 326.5 Z " fill-rule="nonzero" fill="#f2f2f2" stroke="none" />
      <path d="M 1058.5 326.5  A 10 10 0 0 1 1068.5 316.5 L 1191.5 316.5  A 10 10 0 0 1 1201.5 326.5 A 10 10 0 0 1 1191.5 336.5 L 1068.5 336.5  A 10 10 0 0 1 1058.5 326.5 Z " stroke-width="1" stroke="#aaaaaa" fill="none" stroke-opacity="0.101960784313725" />
    </g>
  </defs>
  <g transform="matrix(1 0 0 1 -1057 -315 )">
    <use xlink:href="#widget46" filter="url(#filter45)" />
    <use xlink:href="#widget46" />
  </g>
</svg>