<?xml version="1.0" encoding="utf-8"?>
<svg version="1.1" xmlns:xlink="http://www.w3.org/1999/xlink" width="168px" height="27px" xmlns="http://www.w3.org/2000/svg">
  <defs>
    <filter x="888px" y="315px" width="168px" height="27px" filterUnits="userSpaceOnUse" id="filter43">
      <feOffset dx="2" dy="2" in="SourceAlpha" result="shadowOffsetInner" />
      <feGaussianBlur stdDeviation="1.5" in="shadowOffsetInner" result="shadowGaussian" />
      <feComposite in2="shadowGaussian" operator="atop" in="SourceAlpha" result="shadowComposite" />
      <feColorMatrix type="matrix" values="0 0 0 0 0  0 0 0 0 0  0 0 0 0 0  0 0 0 0.101960784313725 0  " in="shadowComposite" />
    </filter>
    <g id="widget44">
      <path d="M 890 326.5  A 9.5 9.5 0 0 1 899.5 317 L 1040.5 317  A 9.5 9.5 0 0 1 1050 326.5 A 9.5 9.5 0 0 1 1040.5 336 L 899.5 336  A 9.5 9.5 0 0 1 890 326.5 Z " fill-rule="nonzero" fill="#f2f2f2" stroke="none" />
      <path d="M 889.5 326.5  A 10 10 0 0 1 899.5 316.5 L 1040.5 316.5  A 10 10 0 0 1 1050.5 326.5 A 10 10 0 0 1 1040.5 336.5 L 899.5 336.5  A 10 10 0 0 1 889.5 326.5 Z " stroke-width="1" stroke="#aaaaaa" fill="none" stroke-opacity="0.101960784313725" />
    </g>
  </defs>
  <g transform="matrix(1 0 0 1 -888 -315 )">
    <use xlink:href="#widget44" filter="url(#filter43)" />
    <use xlink:href="#widget44" />
  </g>
</svg>