<?xml version="1.0" encoding="utf-8"?>
<svg version="1.1" xmlns:xlink="http://www.w3.org/1999/xlink" width="1060px" height="468px" xmlns="http://www.w3.org/2000/svg">
  <g transform="matrix(1 0 0 1 -160 -620 )">
    <path d="M 161 624  A 3 3 0 0 1 164 621 L 1216 621  A 3 3 0 0 1 1219 624 L 1219 1084  A 3 3 0 0 1 1216 1087 L 164 1087  A 3 3 0 0 1 161 1084 L 161 624  Z " fill-rule="nonzero" fill="#ffffff" stroke="none" />
    <path d="M 160.5 624  A 3.5 3.5 0 0 1 164 620.5 L 1216 620.5  A 3.5 3.5 0 0 1 1219.5 624 L 1219.5 1084  A 3.5 3.5 0 0 1 1216 1087.5 L 164 1087.5  A 3.5 3.5 0 0 1 160.5 1084 L 160.5 624  Z " stroke-width="1" stroke="#d7d7d7" fill="none" stroke-opacity="0.8" />
  </g>
</svg>