<?xml version="1.0" encoding="utf-8"?>
<svg version="1.1" xmlns:xlink="http://www.w3.org/1999/xlink" width="1060px" height="164px" xmlns="http://www.w3.org/2000/svg">
  <g transform="matrix(1 0 0 1 -160 -306 )">
    <path d="M 161 310  A 3 3 0 0 1 164 307 L 1216 307  A 3 3 0 0 1 1219 310 L 1219 466  A 3 3 0 0 1 1216 469 L 164 469  A 3 3 0 0 1 161 466 L 161 310  Z " fill-rule="nonzero" fill="#ffffff" stroke="none" />
    <path d="M 160.5 310  A 3.5 3.5 0 0 1 164 306.5 L 1216 306.5  A 3.5 3.5 0 0 1 1219.5 310 L 1219.5 466  A 3.5 3.5 0 0 1 1216 469.5 L 164 469.5  A 3.5 3.5 0 0 1 160.5 466 L 160.5 310  Z " stroke-width="1" stroke="#d7d7d7" fill="none" stroke-opacity="0.8" />
  </g>
</svg>