<?xml version="1.0" encoding="utf-8"?>
<svg version="1.1" xmlns:xlink="http://www.w3.org/1999/xlink" width="5px" height="7px" xmlns="http://www.w3.org/2000/svg">
  <g transform="matrix(1 0 0 1 -9 -47 )">
    <path d="M 4.9072265625 4.23082386363636  C 4.96907552083333 4.29379734848485  5 4.36837121212121  5 4.45454545454545  C 5 4.5407196969697  4.96907552083333 4.61529356060606  4.9072265625 4.67826704545455  L 2.7197265625 6.90553977272727  C 2.65787760416667 6.96851325757576  2.58463541666667 7  2.5 7  C 2.41536458333333 7  2.34212239583333 6.96851325757576  2.2802734375 6.90553977272727  L 0.0927734375 4.67826704545455  C 0.0309244791666667 4.61529356060606  0 4.5407196969697  0 4.45454545454545  C 0 4.36837121212121  0.0309244791666667 4.29379734848485  0.0927734375 4.23082386363636  C 0.154622395833333 4.16785037878788  0.227864583333333 4.13636363636364  0.3125 4.13636363636364  L 4.6875 4.13636363636364  C 4.77213541666667 4.13636363636364  4.84537760416667 4.16785037878788  4.9072265625 4.23082386363636  Z M 4.9072265625 2.32173295454545  C 4.96907552083333 2.38470643939394  5 2.4592803030303  5 2.54545454545455  C 5 2.63162878787879  4.96907552083333 2.70620265151515  4.9072265625 2.76917613636364  C 4.84537760416667 2.83214962121212  4.77213541666667 2.86363636363636  4.6875 2.86363636363636  L 0.3125 2.86363636363636  C 0.227864583333333 2.86363636363636  0.154622395833333 2.83214962121212  0.0927734375 2.76917613636364  C 0.0309244791666667 2.70620265151515  0 2.63162878787879  0 2.54545454545455  C 0 2.4592803030303  0.0309244791666667 2.38470643939394  0.0927734375 2.32173295454545  L 2.2802734375 0.0944602272727276  C 2.34212239583333 0.0314867424242418  2.41536458333333 0  2.5 0  C 2.58463541666667 0  2.65787760416667 0.0314867424242418  2.7197265625 0.0944602272727276  L 4.9072265625 2.32173295454545  Z " fill-rule="nonzero" fill="#333333" stroke="none" transform="matrix(1 0 0 1 9 47 )" />
  </g>
</svg>