<?xml version="1.0" encoding="utf-8"?>
<svg version="1.1" xmlns:xlink="http://www.w3.org/1999/xlink" width="1060px" height="170px" xmlns="http://www.w3.org/2000/svg">
  <g transform="matrix(1 0 0 1 -160 -632 )">
    <path d="M 161 636  A 3 3 0 0 1 164 633 L 1216 633  A 3 3 0 0 1 1219 636 L 1219 798  A 3 3 0 0 1 1216 801 L 164 801  A 3 3 0 0 1 161 798 L 161 636  Z " fill-rule="nonzero" fill="#ffffff" stroke="none" />
    <path d="M 160.5 636  A 3.5 3.5 0 0 1 164 632.5 L 1216 632.5  A 3.5 3.5 0 0 1 1219.5 636 L 1219.5 798  A 3.5 3.5 0 0 1 1216 801.5 L 164 801.5  A 3.5 3.5 0 0 1 160.5 798 L 160.5 636  Z " stroke-width="1" stroke="#d7d7d7" fill="none" stroke-opacity="0.8" />
  </g>
</svg>