<?xml version="1.0" encoding="utf-8"?>
<svg version="1.1" xmlns:xlink="http://www.w3.org/1999/xlink" width="20px" height="16px" xmlns="http://www.w3.org/2000/svg">
  <g transform="matrix(1 0 0 1 -359 -159 )">
    <path d="M 8.4423828125 12.265625  C 8.6474609375 11.9982638888889  8.75 11.6736111111111  8.75 11.2916666666667  C 8.75 10.9166666666667  8.7255859375 10.5677083333333  8.6767578125 10.2447916666667  C 8.6279296875 9.921875  8.54817708333333 9.609375  8.4375 9.30729166666667  C 8.32682291666667 9.00520833333333  8.16080729166667 8.76736111111111  7.939453125 8.59375  C 7.71809895833333 8.42013888888889  7.45442708333333 8.33333333333333  7.1484375 8.33333333333333  C 6.73177083333333 8.77777777777778  6.22395833333333 9  5.625 9  C 5.02604166666667 9  4.51822916666667 8.77777777777778  4.1015625 8.33333333333333  C 3.79557291666667 8.33333333333333  3.53190104166667 8.42013888888889  3.310546875 8.59375  C 3.08919270833333 8.76736111111111  2.92317708333333 9.00520833333333  2.8125 9.30729166666667  C 2.70182291666667 9.609375  2.6220703125 9.921875  2.5732421875 10.2447916666667  C 2.5244140625 10.5677083333333  2.5 10.9166666666667  2.5 11.2916666666667  C 2.5 11.6736111111111  2.6025390625 11.9982638888889  2.8076171875 12.265625  C 3.0126953125 12.5329861111111  3.25846354166667 12.6666666666667  3.544921875 12.6666666666667  L 7.705078125 12.6666666666667  C 7.99153645833333 12.6666666666667  8.2373046875 12.5329861111111  8.4423828125 12.265625  Z M 6.953125 8.08333333333333  C 7.31770833333333 7.69444444444444  7.5 7.22222222222222  7.5 6.66666666666667  C 7.5 6.11111111111111  7.31770833333333 5.63888888888889  6.953125 5.25  C 6.58854166666667 4.86111111111111  6.14583333333333 4.66666666666667  5.625 4.66666666666667  C 5.10416666666667 4.66666666666667  4.66145833333333 4.86111111111111  4.296875 5.25  C 3.93229166666667 5.63888888888889  3.75 6.11111111111111  3.75 6.66666666666667  C 3.75 7.22222222222222  3.93229166666667 7.69444444444444  4.296875 8.08333333333333  C 4.66145833333333 8.47222222222222  5.10416666666667 8.66666666666667  5.625 8.66666666666667  C 6.14583333333333 8.66666666666667  6.58854166666667 8.47222222222222  6.953125 8.08333333333333  Z M 17.412109375 11.90625  C 17.470703125 11.84375  17.5 11.7638888888889  17.5 11.6666666666667  L 17.5 11  C 17.5 10.9027777777778  17.470703125 10.8229166666667  17.412109375 10.7604166666667  C 17.353515625 10.6979166666667  17.2786458333333 10.6666666666667  17.1875 10.6666666666667  L 10.3125 10.6666666666667  C 10.2213541666667 10.6666666666667  10.146484375 10.6979166666667  10.087890625 10.7604166666667  C 10.029296875 10.8229166666667  10 10.9027777777778  10 11  L 10 11.6666666666667  C 10 11.7638888888889  10.029296875 11.84375  10.087890625 11.90625  C 10.146484375 11.96875  10.2213541666667 12  10.3125 12  L 17.1875 12  C 17.2786458333333 12  17.353515625 11.96875  17.412109375 11.90625  Z M 13.662109375 9.23958333333333  C 13.720703125 9.17708333333333  13.75 9.09722222222222  13.75 9  L 13.75 8.33333333333333  C 13.75 8.23611111111111  13.720703125 8.15625  13.662109375 8.09375  C 13.603515625 8.03125  13.5286458333333 8  13.4375 8  L 10.3125 8  C 10.2213541666667 8  10.146484375 8.03125  10.087890625 8.09375  C 10.029296875 8.15625  10 8.23611111111111  10 8.33333333333333  L 10 9  C 10 9.09722222222222  10.029296875 9.17708333333333  10.087890625 9.23958333333333  C 10.146484375 9.30208333333333  10.2213541666667 9.33333333333333  10.3125 9.33333333333333  L 13.4375 9.33333333333333  C 13.5286458333333 9.33333333333333  13.603515625 9.30208333333333  13.662109375 9.23958333333333  Z M 17.412109375 9.23958333333333  C 17.470703125 9.17708333333333  17.5 9.09722222222222  17.5 9  L 17.5 8.33333333333333  C 17.5 8.23611111111111  17.470703125 8.15625  17.412109375 8.09375  C 17.353515625 8.03125  17.2786458333333 8  17.1875 8  L 15.3125 8  C 15.2213541666667 8  15.146484375 8.03125  15.087890625 8.09375  C 15.029296875 8.15625  15 8.23611111111111  15 8.33333333333333  L 15 9  C 15 9.09722222222222  15.029296875 9.17708333333333  15.087890625 9.23958333333333  C 15.146484375 9.30208333333333  15.2213541666667 9.33333333333333  15.3125 9.33333333333333  L 17.1875 9.33333333333333  C 17.2786458333333 9.33333333333333  17.353515625 9.30208333333333  17.412109375 9.23958333333333  Z M 17.412109375 6.57291666666667  C 17.470703125 6.51041666666667  17.5 6.43055555555556  17.5 6.33333333333333  L 17.5 5.66666666666667  C 17.5 5.56944444444444  17.470703125 5.48958333333333  17.412109375 5.42708333333333  C 17.353515625 5.36458333333333  17.2786458333333 5.33333333333333  17.1875 5.33333333333333  L 10.3125 5.33333333333333  C 10.2213541666667 5.33333333333333  10.146484375 5.36458333333333  10.087890625 5.42708333333333  C 10.029296875 5.48958333333333  10 5.56944444444444  10 5.66666666666667  L 10 6.33333333333333  C 10 6.43055555555556  10.029296875 6.51041666666667  10.087890625 6.57291666666667  C 10.146484375 6.63541666666667  10.2213541666667 6.66666666666667  10.3125 6.66666666666667  L 17.1875 6.66666666666667  C 17.2786458333333 6.66666666666667  17.353515625 6.63541666666667  17.412109375 6.57291666666667  Z M 1.25 1.66666666666667  L 1.25 2.66666666666667  L 18.75 2.66666666666667  L 18.75 1.66666666666667  C 18.75 1.56944444444444  18.720703125 1.48958333333333  18.662109375 1.42708333333333  C 18.603515625 1.36458333333333  18.5286458333333 1.33333333333333  18.4375 1.33333333333333  L 1.5625 1.33333333333333  C 1.47135416666667 1.33333333333333  1.396484375 1.36458333333333  1.337890625 1.42708333333333  C 1.279296875 1.48958333333333  1.25 1.56944444444444  1.25 1.66666666666667  Z M 19.541015625 0.489583333333334  C 19.8470052083333 0.815972222222221  20 1.20833333333333  20 1.66666666666667  L 20 14.3333333333333  C 20 14.7916666666667  19.8470052083333 15.1840277777778  19.541015625 15.5104166666667  C 19.2350260416667 15.8368055555556  18.8671875 16  18.4375 16  L 1.5625 16  C 1.1328125 16  0.764973958333333 15.8368055555556  0.458984375 15.5104166666667  C 0.152994791666667 15.1840277777778  0 14.7916666666667  0 14.3333333333333  L 0 1.66666666666667  C 0 1.20833333333333  0.152994791666667 0.815972222222221  0.458984375 0.489583333333334  C 0.764973958333333 0.163194444444443  1.1328125 0  1.5625 0  L 18.4375 0  C 18.8671875 0  19.2350260416667 0.163194444444443  19.541015625 0.489583333333334  Z " fill-rule="nonzero" fill="#facd91" stroke="none" transform="matrix(1 0 0 1 359 159 )" />
  </g>
</svg>