<?xml version="1.0" encoding="utf-8"?>
<svg version="1.1" xmlns:xlink="http://www.w3.org/1999/xlink" width="18px" height="13px" xmlns="http://www.w3.org/2000/svg">
  <g transform="matrix(1 0 0 1 -1171 -68 )">
    <path d="M 16.6188616071429 11.73046875  C 16.6824776785714 11.6719933712121  16.7142857142857 11.6027462121212  16.7142857142857 11.5227272727273  L 16.7142857142857 4.43181818181818  C 16.5 4.65340909090909  16.2689732142857 4.85653409090909  16.0212053571429 5.04119318181818  C 14.2265625 6.3091856060606  12.8002232142857 7.34943181818182  11.7421875 8.16193181818182  C 11.4006696428571 8.42660984848485  11.1227678571429 8.6328125  10.9084821428571 8.78053977272727  C 10.6941964285714 8.92826704545454  10.4045758928571 9.07753314393939  10.0396205357143 9.22833806818182  C 9.67466517857143 9.37914299242424  9.33147321428572 9.45454545454546  9.01004464285714 9.45454545454546  L 9 9.45454545454546  L 8.98995535714286 9.45454545454546  C 8.66852678571429 9.45454545454546  8.32533482142857 9.37914299242424  7.96037946428571 9.22833806818182  C 7.59542410714286 9.07753314393939  7.30580357142857 8.92826704545454  7.09151785714286 8.78053977272727  C 6.87723214285714 8.6328125  6.59933035714286 8.42660984848485  6.2578125 8.16193181818182  C 5.19977678571429 7.34943181818182  3.7734375 6.3091856060606  1.97879464285714 5.04119318181818  C 1.73102678571429 4.85653409090909  1.5 4.65340909090909  1.28571428571429 4.43181818181818  L 1.28571428571429 11.5227272727273  C 1.28571428571429 11.6027462121212  1.31752232142857 11.6719933712121  1.38113839285714 11.73046875  C 1.44475446428571 11.7889441287879  1.52008928571429 11.8181818181818  1.60714285714286 11.8181818181818  L 16.3928571428571 11.8181818181818  C 16.4799107142857 11.8181818181818  16.5552455357143 11.7889441287879  16.6188616071429 11.73046875  Z M 16.2472098214286 3.03302556818182  C 16.55859375 2.58676609848485  16.7142857142857 2.18205492424242  16.7142857142857 1.81889204545455  L 16.7142857142857 1.71732954545455  L 16.7142857142857 1.59268465909091  C 16.7142857142857 1.59268465909091  16.7126116071429 1.55267518939394  16.7092633928571 1.47265625  C 16.7059151785714 1.39263731060606  16.6958705357143 1.35416666666666  16.6791294642857 1.35724431818182  C 16.6623883928571 1.36032196969697  16.6439732142857 1.33262310606061  16.6238839285714 1.27414772727273  C 16.6037946428571 1.21567234848485  16.5736607142857 1.19258996212121  16.5334821428571 1.20490056818182  C 16.4933035714286 1.21721117424242  16.4464285714286 1.20951704545455  16.3928571428571 1.18181818181818  L 1.60714285714286 1.18181818181818  C 1.52008928571429 1.18181818181818  1.44475446428571 1.21105587121212  1.38113839285714 1.26953125  C 1.31752232142857 1.32800662878788  1.28571428571429 1.39725378787879  1.28571428571429 1.47727272727273  C 1.28571428571429 2.51136363636364  1.77790178571429 3.38541666666666  2.76227678571429 4.09943181818182  C 4.0546875 5.03503787878788  5.39732142857143 6.01065340909091  6.79017857142857 7.02627840909091  C 6.83035714285714 7.05705492424242  6.94754464285714 7.14784564393939  7.14174107142857 7.29865056818182  C 7.3359375 7.44945549242424  7.48995535714286 7.56486742424242  7.60379464285714 7.64488636363636  C 7.71763392857143 7.7249053030303  7.86662946428572 7.82185132575757  8.05078125 7.93572443181818  C 8.23493303571429 8.04959753787879  8.40401785714286 8.13423295454546  8.55803571428571 8.18963068181818  C 8.71205357142857 8.24502840909091  8.85602678571429 8.27272727272727  8.98995535714286 8.27272727272727  L 9 8.27272727272727  L 9.01004464285714 8.27272727272727  C 9.14397321428572 8.27272727272727  9.28794642857143 8.24502840909091  9.44196428571428 8.18963068181818  C 9.59598214285715 8.13423295454546  9.76506696428571 8.04959753787879  9.94921875 7.93572443181818  C 10.1333705357143 7.82185132575757  10.2823660714286 7.7249053030303  10.3962053571429 7.64488636363636  C 10.5100446428571 7.56486742424242  10.6640625 7.44945549242424  10.8582589285714 7.29865056818182  C 11.0524553571429 7.14784564393939  11.1696428571429 7.05705492424242  11.2098214285714 7.02627840909091  C 12.6026785714286 6.01065340909091  13.9453125 5.03503787878788  15.2377232142857 4.09943181818182  C 15.5993303571429 3.83475378787879  15.9358258928571 3.47928503787879  16.2472098214286 3.03302556818182  Z M 17.5279017857143 0.433948863636363  C 17.8426339285714 0.723248106060605  18 1.07102272727273  18 1.47727272727273  L 18 11.5227272727273  C 18 11.9289772727273  17.8426339285714 12.2767518939394  17.5279017857143 12.5660511363636  C 17.2131696428571 12.8553503787879  16.8348214285714 13  16.3928571428571 13  L 1.60714285714286 13  C 1.16517857142857 13  0.786830357142857 12.8553503787879  0.472098214285714 12.5660511363636  C 0.157366071428571 12.2767518939394  0 11.9289772727273  0 11.5227272727273  L 0 1.47727272727273  C 0 1.07102272727273  0.157366071428571 0.723248106060605  0.472098214285714 0.433948863636363  C 0.786830357142857 0.14464962121212  1.16517857142857 0  1.60714285714286 0  L 16.3928571428571 0  C 16.8348214285714 0  17.2131696428571 0.14464962121212  17.5279017857143 0.433948863636363  Z " fill-rule="nonzero" fill="#015478" stroke="none" transform="matrix(1 0 0 1 1171 68 )" />
  </g>
</svg>