<?xml version="1.0" encoding="utf-8"?>
<svg version="1.1" xmlns:xlink="http://www.w3.org/1999/xlink" width="19px" height="14px" xmlns="http://www.w3.org/2000/svg">
  <g transform="matrix(1 0 0 1 -1211 -68 )">
    <path d="M 17.5468831849136 8.37215909090909  C 17.6663174436878 8.22632575757576  17.7260345730749 8.09706439393939  17.7260345730749 7.984375  C 17.7260345730749 7.75236742424242  17.5502008032129 7.63636363636364  17.1985332634887 7.63636363636364  L 6.36982713462546 7.63636363636364  C 6.10441767068273 7.63636363636364  5.82076130609394 7.70762310606061  5.51885804085909 7.85014204545455  C 5.21695477562424 7.99266098484848  4.97974506722542 8.16666666666667  4.80722891566265 8.37215909090909  L 1.88108957569408 11.9815340909091  C 1.76165531691985 12.140625  1.70193818753274 12.2732007575758  1.70193818753274 12.3792613636364  C 1.70193818753274 12.6112689393939  1.8777719573948 12.7272727272727  2.22943949711891 12.7272727272727  L 13.0581456259822 12.7272727272727  C 13.3235550899249 12.7272727272727  13.6088702636634 12.6543560606061  13.9140911471975 12.5085227272727  C 14.2193120307316 12.3626893939394  14.4548629299808 12.1870265151515  14.620743844945 11.9815340909091  L 17.5468831849136 8.37215909090909  Z M 4.97642744892614 6.70667613636364  C 5.45416448402305 6.47798295454546  5.91863104592282 6.36363636363636  6.36982713462546 6.36363636363636  L 14.013619696176 6.36363636363636  L 14.013619696176 4.77272727272727  C 14.013619696176 4.50757575757576  13.9207263837961 4.28219696969697  13.7349397590361 4.09659090909091  C 13.5491531342762 3.91098484848485  13.3235550899249 3.81818181818182  13.0581456259822 3.81818181818182  L 7.32530120481928 3.81818181818182  C 7.05989174087655 3.81818181818182  6.83429369652523 3.72537878787879  6.64850707176532 3.53977272727273  C 6.46272044700541 3.35416666666667  6.36982713462546 3.12878787878788  6.36982713462546 2.86363636363636  L 6.36982713462546 2.22727272727273  C 6.36982713462546 1.96212121212121  6.2769338222455 1.73674242424242  6.09114719748559 1.55113636363636  C 5.90536057272569 1.3655303030303  5.67976252837437 1.27272727272727  5.41435306443164 1.27272727272727  L 2.22943949711891 1.27272727272727  C 1.96403003317618 1.27272727272727  1.73843198882486 1.3655303030303  1.55264536406496 1.55113636363636  C 1.36685873930505 1.73674242424242  1.27396542692509 1.96212121212121  1.27396542692509 2.22727272727273  L 1.27396542692509 10.7088068181818  L 3.82189628077528 7.57670454545455  C 4.11384669111228 7.22537878787879  4.49869041382923 6.93536931818182  4.97642744892614 6.70667613636364  Z M 18.8507071765322 7.30823863636364  C 18.9502357255107 7.52035984848485  19 7.74573863636364  19 7.984375  C 19 8.39535984848485  18.8473895582329 8.79308712121212  18.5421686746988 9.17755681818182  L 15.6060764798324 12.7869318181818  C 15.3207613060939 13.1382575757576  14.935917583377 13.4282670454545  14.4515453116815 13.6569602272727  C 13.967173039986 13.8856534090909  13.5027064780863 14  13.0581456259822 14  L 2.22943949711891 14  C 1.61899773005064 14  1.09481403876375 13.78125  0.65688842325825 13.34375  C 0.21896280775275 12.90625  0 12.3825757575758  0 11.7727272727273  L 0 2.22727272727273  C 0 1.61742424242424  0.21896280775275 1.09375  0.65688842325825 0.65625  C 1.09481403876375 0.21875  1.61899773005064 0  2.22943949711891 0  L 5.41435306443164 0  C 6.02479483149991 0  6.5489785227868 0.21875  6.9869041382923 0.65625  C 7.4248297537978 1.09375  7.64379256155055 1.61742424242424  7.64379256155055 2.22727272727273  L 7.64379256155055 2.54545454545454  L 13.0581456259822 2.54545454545454  C 13.6685873930505 2.54545454545454  14.1927710843373 2.76420454545454  14.6306966998428 3.20170454545454  C 15.0686223153484 3.63920454545454  15.2875851231011 4.16287878787879  15.2875851231011 4.77272727272727  L 15.2875851231011 6.36363636363636  L 17.1985332634887 6.36363636363636  C 17.5568360398114 6.36363636363636  17.8852802514405 6.44483901515152  18.1838658983761 6.60724431818182  C 18.4824515453117 6.76964962121212  18.7047319713637 7.00331439393939  18.8507071765322 7.30823863636364  Z " fill-rule="nonzero" fill="#015478" stroke="none" transform="matrix(1 0 0 1 1211 68 )" />
  </g>
</svg>