<?xml version="1.0" encoding="utf-8"?>
<svg version="1.1" xmlns:xlink="http://www.w3.org/1999/xlink" width="9px" height="10px" xmlns="http://www.w3.org/2000/svg">
  <g transform="matrix(1 0 0 1 -160 -290 )">
    <path d="M 6.375 3.33333333333333  C 6.53125 3.33333333333333  6.642578125 3.40928819444444  6.708984375 3.56119791666667  C 6.779296875 3.71310763888889  6.76953125 3.85633680555555  6.6796875 3.99088541666667  L 4.8046875 6.90755208333333  C 4.73046875 7.02473958333333  4.62890625 7.08333333333333  4.5 7.08333333333333  C 4.37109375 7.08333333333333  4.26953125 7.02473958333333  4.1953125 6.90755208333333  L 2.3203125 3.99088541666667  C 2.23046875 3.85633680555555  2.220703125 3.71310763888889  2.291015625 3.56119791666667  C 2.357421875 3.40928819444444  2.46875 3.33333333333333  2.625 3.33333333333333  L 6.375 3.33333333333333  Z M 7.4443359375 8.271484375  C 7.4814453125 8.23025173611111  7.5 8.18142361111111  7.5 8.125  L 7.5 1.875  C 7.5 1.81857638888889  7.4814453125 1.76974826388889  7.4443359375 1.728515625  C 7.4072265625 1.68728298611111  7.36328125 1.66666666666667  7.3125 1.66666666666667  L 1.6875 1.66666666666667  C 1.63671875 1.66666666666667  1.5927734375 1.68728298611111  1.5556640625 1.728515625  C 1.5185546875 1.76974826388889  1.5 1.81857638888889  1.5 1.875  L 1.5 8.125  C 1.5 8.18142361111111  1.5185546875 8.23025173611111  1.5556640625 8.271484375  C 1.5927734375 8.31271701388889  1.63671875 8.33333333333333  1.6875 8.33333333333333  L 7.3125 8.33333333333333  C 7.36328125 8.33333333333333  7.4072265625 8.31271701388889  7.4443359375 8.271484375  Z M 8.5048828125 0.550130208333334  C 8.8349609375 0.916883680555555  9 1.35850694444444  9 1.875  L 9 8.125  C 9 8.64149305555556  8.8349609375 9.08311631944444  8.5048828125 9.44986979166667  C 8.1748046875 9.81662326388889  7.77734375 10  7.3125 10  L 1.6875 10  C 1.22265625 10  0.8251953125 9.81662326388889  0.4951171875 9.44986979166667  C 0.1650390625 9.08311631944444  0 8.64149305555556  0 8.125  L 0 1.875  C 0 1.35850694444444  0.1650390625 0.916883680555555  0.4951171875 0.550130208333334  C 0.8251953125 0.18337673611111  1.22265625 0  1.6875 0  L 7.3125 0  C 7.77734375 0  8.1748046875 0.18337673611111  8.5048828125 0.550130208333334  Z " fill-rule="nonzero" fill="#ff6621" stroke="none" transform="matrix(1 0 0 1 160 290 )" />
  </g>
</svg>