<?xml version="1.0" encoding="utf-8"?>
<svg version="1.1" xmlns:xlink="http://www.w3.org/1999/xlink" width="943px" height="165px" xmlns="http://www.w3.org/2000/svg">
  <g transform="matrix(1 0 0 1 -159 -306 )">
    <path d="M 160 310  A 3 3 0 0 1 163 307 L 1098 307  A 3 3 0 0 1 1101 310 L 1101 467  A 3 3 0 0 1 1098 470 L 163 470  A 3 3 0 0 1 160 467 L 160 310  Z " fill-rule="nonzero" fill="#ffffff" stroke="none" />
    <path d="M 159.5 310  A 3.5 3.5 0 0 1 163 306.5 L 1098 306.5  A 3.5 3.5 0 0 1 1101.5 310 L 1101.5 467  A 3.5 3.5 0 0 1 1098 470.5 L 163 470.5  A 3.5 3.5 0 0 1 159.5 467 L 159.5 310  Z " stroke-width="1" stroke="#d7d7d7" fill="none" stroke-opacity="0.8" />
  </g>
</svg>