<?xml version="1.0" encoding="utf-8"?>
<svg version="1.1" xmlns:xlink="http://www.w3.org/1999/xlink" width="943px" height="250px" xmlns="http://www.w3.org/2000/svg">
  <g transform="matrix(1 0 0 1 -159 -518 )">
    <path d="M 160 522  A 3 3 0 0 1 163 519 L 1098 519  A 3 3 0 0 1 1101 522 L 1101 764  A 3 3 0 0 1 1098 767 L 163 767  A 3 3 0 0 1 160 764 L 160 522  Z " fill-rule="nonzero" fill="#ffffff" stroke="none" />
    <path d="M 159.5 522  A 3.5 3.5 0 0 1 163 518.5 L 1098 518.5  A 3.5 3.5 0 0 1 1101.5 522 L 1101.5 764  A 3.5 3.5 0 0 1 1098 767.5 L 163 767.5  A 3.5 3.5 0 0 1 159.5 764 L 159.5 522  Z " stroke-width="1" stroke="#d7d7d7" fill="none" stroke-opacity="0.8" />
  </g>
</svg>