<?xml version="1.0" encoding="utf-8"?>
<svg version="1.1" xmlns:xlink="http://www.w3.org/1999/xlink" width="17px" height="13px" xmlns="http://www.w3.org/2000/svg">
  <g transform="matrix(1 0 0 1 -1252 -51 )">
    <path d="M 3.67482885729331 3.52244224422442  C 3.8986308583465 3.30792079207921  4.01053185887309 3.04906490649065  4.01053185887309 2.74587458745875  C 4.01053185887309 2.44268426842684  3.8986308583465 2.18382838283828  3.67482885729331 1.96930693069307  C 3.45102685624013 1.75478547854786  3.18097244163595 1.64752475247525  2.86466561348078 1.64752475247525  C 2.54835878532561 1.64752475247525  2.27830437072143 1.75478547854786  2.05450236966825 1.96930693069307  C 1.83070036861506 2.18382838283828  1.71879936808847 2.44268426842684  1.71879936808847 2.74587458745875  C 1.71879936808847 3.04906490649065  1.83070036861506 3.30792079207921  2.05450236966825 3.52244224422442  C 2.27830437072143 3.73696369636964  2.54835878532561 3.84422442244224  2.86466561348078 3.84422442244224  C 3.18097244163595 3.84422442244224  3.45102685624013 3.73696369636964  3.67482885729331 3.52244224422442  Z M 13.2311743022643 6.90759075907591  C 13.4519922766368 7.13069306930693  13.5624012638231 7.39097909790979  13.5624012638231 7.68844884488449  C 13.5624012638231 7.99163916391639  13.4519922766368 8.24906490649065  13.2311743022643 8.46072607260726  L 8.83570300157978 12.6825082508251  C 8.60294892048447 12.8941694169417  8.33140249253993 13  8.02106371774618 13  C 7.70475688959101 13  7.43619448832719 12.8941694169417  7.21537651395471 12.6825082508251  L 0.814639283833597 6.53861386138614  C 0.587853256099702 6.32695269526953  0.395383535193962 6.03806380638064  0.237230121116377 5.67194719471947  C 0.0790767070387923 5.30583058305831  0 4.97117711771177  0 4.66798679867987  L 0 1.0983498349835  C 0 0.800880088008801  0.113393013866948 0.543454345434543  0.340179041600843 0.326072607260725  C 0.566965069334738 0.108690869086908  0.835527470598561 0  1.14586624539231 0  L 4.86993154291732 0  C 5.18623837107249 0  5.53536949271546 0.0757975797579747  5.91732490784623 0.227392739273927  C 6.29928032297701 0.378987898789878  6.60365104440934 0.563476347634762  6.83043707214323 0.780858085808581  L 13.2311743022643 6.90759075907591  Z M 16.6687730384413 6.90759075907591  C 16.8895910128138 7.13069306930693  17 7.39097909790979  17 7.68844884488449  C 17 7.99163916391639  16.8895910128138 8.24906490649065  16.6687730384413 8.46072607260726  L 12.2733017377567 12.6825082508251  C 12.0405476566614 12.8941694169417  11.7690012287169 13  11.4586624539231 13  C 11.2438125329121 13  11.0677549587502 12.9599559955996  10.9304897314376 12.8798679867987  C 10.793224504125 12.7997799779978  10.6350710900474 12.6710671067107  10.4560294892048 12.4937293729373  L 14.6635071090047 8.46072607260726  C 14.8843250833772 8.24906490649065  14.9947340705635 7.99163916391639  14.9947340705635 7.68844884488449  C 14.9947340705635 7.39097909790979  14.8843250833772 7.13069306930693  14.6635071090047 6.90759075907591  L 8.26276987888362 0.780858085808581  C 8.03598385114973 0.563476347634762  7.7316131297174 0.378987898789878  7.34965771458662 0.227392739273927  C 6.96770229945585 0.0757975797579747  6.61857117781288 0  6.30226434965771 0  L 8.30753027909426 0  C 8.62383710724943 0  8.9729682288924 0.0757975797579747  9.35492364402317 0.227392739273927  C 9.73687905915394 0.378987898789878  10.0412497805863 0.563476347634762  10.2680358083202 0.780858085808581  L 16.6687730384413 6.90759075907591  Z " fill-rule="nonzero" fill="#015478" stroke="none" transform="matrix(1 0 0 1 1252 51 )" />
  </g>
</svg>