<?xml version="1.0" encoding="utf-8"?>
<svg version="1.1" xmlns:xlink="http://www.w3.org/1999/xlink" width="13px" height="11px" xmlns="http://www.w3.org/2000/svg">
  <g transform="matrix(1 0 0 1 -1090 -126 )">
    <path d="M 10.1489955357143 6.48111979166667  C 10.1925223214286 6.52408854166667  10.2142857142857 6.57899305555555  10.2142857142857 6.64583333333333  L 10.2142857142857 8.9375  C 10.2142857142857 9.50564236111111  10.0099516369048 9.99142795138889  9.60128348214286 10.3948567708333  C 9.19261532738095 10.7982855902778  8.70052083333333 11  8.125 11  L 2.08928571428571 11  C 1.51376488095238 11  1.02167038690476 10.7982855902778  0.613002232142857 10.3948567708333  C 0.204334077380952 9.99142795138889  0 9.50564236111111  0 8.9375  L 0 2.97916666666667  C 0 2.41102430555555  0.204334077380952 1.92523871527778  0.613002232142857 1.52180989583333  C 1.02167038690476 1.11838107638889  1.51376488095238 0.916666666666667  2.08928571428571 0.916666666666667  L 7.19642857142857 0.916666666666667  C 7.26413690476191 0.916666666666667  7.31975446428571 0.938151041666667  7.36328125 0.981119791666667  C 7.40680803571429 1.02408854166667  7.42857142857143 1.07899305555555  7.42857142857143 1.14583333333333  L 7.42857142857143 1.60416666666667  C 7.42857142857143 1.67100694444444  7.40680803571429 1.72591145833333  7.36328125 1.76888020833333  C 7.31975446428571 1.81184895833333  7.26413690476191 1.83333333333333  7.19642857142857 1.83333333333333  L 2.08928571428571 1.83333333333333  C 1.77008928571429 1.83333333333333  1.49683779761905 1.94552951388889  1.26953125 2.169921875  C 1.04222470238095 2.39431423611111  0.928571428571428 2.6640625  0.928571428571428 2.97916666666667  L 0.928571428571428 8.9375  C 0.928571428571428 9.25260416666667  1.04222470238095 9.52235243055555  1.26953125 9.74674479166667  C 1.49683779761905 9.97113715277778  1.77008928571429 10.0833333333333  2.08928571428571 10.0833333333333  L 8.125 10.0833333333333  C 8.44419642857143 10.0833333333333  8.71744791666667 9.97113715277778  8.94475446428571 9.74674479166667  C 9.17206101190476 9.52235243055555  9.28571428571429 9.25260416666667  9.28571428571429 8.9375  L 9.28571428571429 6.64583333333333  C 9.28571428571429 6.57899305555555  9.30747767857143 6.52408854166667  9.35100446428571 6.48111979166667  C 9.39453125 6.43815104166667  9.45014880952381 6.41666666666667  9.51785714285714 6.41666666666667  L 9.98214285714286 6.41666666666667  C 10.0498511904762 6.41666666666667  10.10546875 6.43815104166667  10.1489955357143 6.48111979166667  Z M 12.8621651785714 0.136067708333333  C 12.9540550595238 0.226779513888887  13 0.334201388888887  13 0.458333333333333  L 13 4.125  C 13 4.24913194444444  12.9540550595238 4.35655381944444  12.8621651785714 4.447265625  C 12.770275297619 4.53797743055556  12.6614583333333 4.58333333333333  12.5357142857143 4.58333333333333  C 12.4099702380952 4.58333333333333  12.3011532738095 4.53797743055556  12.2092633928571 4.447265625  L 10.9324776785714 3.18684895833333  L 6.20256696428571 7.85611979166667  C 6.15420386904762 7.90386284722222  6.09858630952381 7.927734375  6.03571428571429 7.927734375  C 5.97284226190476 7.927734375  5.91722470238095 7.90386284722222  5.86886160714286 7.85611979166667  L 5.04185267857143 7.03971354166667  C 4.99348958333333 6.99197048611111  4.96930803571429 6.93706597222222  4.96930803571429 6.875  C 4.96930803571429 6.81293402777778  4.99348958333333 6.75802951388889  5.04185267857143 6.71028645833333  L 9.77176339285714 2.041015625  L 8.49497767857143 0.780598958333333  C 8.40308779761905 0.689887152777777  8.35714285714286 0.582465277777777  8.35714285714286 0.458333333333333  C 8.35714285714286 0.334201388888887  8.40308779761905 0.226779513888887  8.49497767857143 0.136067708333333  C 8.58686755952381 0.0453559027777785  8.69568452380952 0  8.82142857142857 0  L 12.5357142857143 0  C 12.6614583333333 0  12.770275297619 0.0453559027777785  12.8621651785714 0.136067708333333  Z " fill-rule="nonzero" fill="#02a7f0" stroke="none" transform="matrix(1 0 0 1 1090 126 )" />
  </g>
</svg>